<?xml version="1.0" encoding="iso-8859-1"?>
<!-- Generator: Adobe Illustrator 16.0.0, SVG Export Plug-In . SVG Version: 6.00 Build 0)  -->
<!DOCTYPE svg PUBLIC "-//W3C//DTD SVG 1.1//EN" "http://www.w3.org/Graphics/SVG/1.1/DTD/svg11.dtd">
<svg version="1.1" id="Capa_1" xmlns="http://www.w3.org/2000/svg" xmlns:xlink="http://www.w3.org/1999/xlink" x="0px" y="0px"
	fill="#FFFFFF" viewBox="0 0 71 32" 
	 xml:space="preserve">
<g>
<path d="M118.2,25l-8.331,0-6.91,10.924V16H95.883V47.469h6.189l4.5-6.271,4.5,6.271h9.054L110.75,35.374Zm10.975-.549A11.777,11.777,0,1,0,141,36.223,11.8,11.8,0,0,0,129.172,24.446Zm0,16.773a4.784,4.784,0,0,1-4.731-5,4.739,4.739,0,1,1,9.462,0A4.784,4.784,0,0,1,129.172,41.219ZM81.828,24.446A11.777,11.777,0,1,0,92.9,40.382H85.7c-0.741.876-1.7,1.5-3.812,1.5a4.856,4.856,0,0,1-4.807-3.438H93.445A11.778,11.778,0,0,0,81.828,24.446ZM77.082,34a5.017,5.017,0,0,1,9.491,0H77.082Z" transform="translate(-70 -16)"></path>
	</g>

</svg>
